<?xml version="1.0" standalone="no"?>
<svg xmlns:xlink="http://www.w3.org/1999/xlink" id="wave" style="transform:rotate(180deg); transition: 0.3s" viewBox="0 0 1440 130" version="1.1" xmlns="http://www.w3.org/2000/svg"><defs><linearGradient id="sw-gradient-0" x1="0" x2="0" y1="1" y2="0"><stop stop-color="rgba(0, 0, 0, 1)" offset="0%"/><stop stop-color="rgba(0, 0, 0, 1)" offset="100%"/></linearGradient></defs><path style="transform:translate(0, 0px); opacity:1" fill="url(#sw-gradient-0)" d="M0,13L120,30.3C240,48,480,82,720,80.2C960,78,1200,39,1440,19.5C1680,0,1920,0,2160,15.2C2400,30,2640,61,2880,71.5C3120,82,3360,74,3600,65C3840,56,4080,48,4320,39C4560,30,4800,22,5040,17.3C5280,13,5520,13,5760,10.8C6000,9,6240,4,6480,21.7C6720,39,6960,78,7200,86.7C7440,95,7680,74,7920,62.8C8160,52,8400,52,8640,62.8C8880,74,9120,95,9360,91C9600,87,9840,56,10080,56.3C10320,56,10560,87,10800,95.3C11040,104,11280,91,11520,82.3C11760,74,12000,69,12240,65C12480,61,12720,56,12960,60.7C13200,65,13440,78,13680,78C13920,78,14160,65,14400,49.8C14640,35,14880,17,15120,26C15360,35,15600,69,15840,84.5C16080,100,16320,95,16560,88.8C16800,82,17040,74,17160,69.3L17280,65L17280,130L17160,130C17040,130,16800,130,16560,130C16320,130,16080,130,15840,130C15600,130,15360,130,15120,130C14880,130,14640,130,14400,130C14160,130,13920,130,13680,130C13440,130,13200,130,12960,130C12720,130,12480,130,12240,130C12000,130,11760,130,11520,130C11280,130,11040,130,10800,130C10560,130,10320,130,10080,130C9840,130,9600,130,9360,130C9120,130,8880,130,8640,130C8400,130,8160,130,7920,130C7680,130,7440,130,7200,130C6960,130,6720,130,6480,130C6240,130,6000,130,5760,130C5520,130,5280,130,5040,130C4800,130,4560,130,4320,130C4080,130,3840,130,3600,130C3360,130,3120,130,2880,130C2640,130,2400,130,2160,130C1920,130,1680,130,1440,130C1200,130,960,130,720,130C480,130,240,130,120,130L0,130Z"/></svg>