<?xml version="1.0" standalone="no"?>
<svg xmlns:xlink="http://www.w3.org/1999/xlink" id="wave" style="transform:rotate(0deg); transition: 0.3s" viewBox="0 0 1440 280" version="1.1" xmlns="http://www.w3.org/2000/svg"><defs><linearGradient id="sw-gradient-0" x1="0" x2="0" y1="1" y2="0"><stop stop-color="rgba(243, 106, 62, 1)" offset="0%"/><stop stop-color="rgba(255, 179, 11, 1)" offset="100%"/></linearGradient></defs><path style="transform:translate(0, 0px); opacity:1" fill="url(#sw-gradient-0)" d="M0,140L60,121.3C120,103,240,65,360,51.3C480,37,600,47,720,84C840,121,960,187,1080,200.7C1200,215,1320,177,1440,140C1560,103,1680,65,1800,84C1920,103,2040,177,2160,172.7C2280,168,2400,84,2520,84C2640,84,2760,168,2880,186.7C3000,205,3120,159,3240,140C3360,121,3480,131,3600,121.3C3720,112,3840,84,3960,65.3C4080,47,4200,37,4320,28C4440,19,4560,9,4680,23.3C4800,37,4920,75,5040,93.3C5160,112,5280,112,5400,93.3C5520,75,5640,37,5760,51.3C5880,65,6000,131,6120,168C6240,205,6360,215,6480,219.3C6600,224,6720,224,6840,196C6960,168,7080,112,7200,88.7C7320,65,7440,75,7560,98C7680,121,7800,159,7920,158.7C8040,159,8160,121,8280,126C8400,131,8520,177,8580,200.7L8640,224L8640,280L8580,280C8520,280,8400,280,8280,280C8160,280,8040,280,7920,280C7800,280,7680,280,7560,280C7440,280,7320,280,7200,280C7080,280,6960,280,6840,280C6720,280,6600,280,6480,280C6360,280,6240,280,6120,280C6000,280,5880,280,5760,280C5640,280,5520,280,5400,280C5280,280,5160,280,5040,280C4920,280,4800,280,4680,280C4560,280,4440,280,4320,280C4200,280,4080,280,3960,280C3840,280,3720,280,3600,280C3480,280,3360,280,3240,280C3120,280,3000,280,2880,280C2760,280,2640,280,2520,280C2400,280,2280,280,2160,280C2040,280,1920,280,1800,280C1680,280,1560,280,1440,280C1320,280,1200,280,1080,280C960,280,840,280,720,280C600,280,480,280,360,280C240,280,120,280,60,280L0,280Z"/></svg>