<?xml version="1.0" standalone="no"?>
<svg xmlns:xlink="http://www.w3.org/1999/xlink" id="wave" style="transform:rotate(0deg); transition: 0.3s" viewBox="0 0 1985 400" version="1.1" xmlns="http://www.w3.org/2000/svg"><defs><linearGradient id="sw-gradient-0" x1="0" x2="0" y1="1" y2="0"><stop stop-color="rgba(255, 255, 255, 1)" offset="0%"/><stop stop-color="rgba(255, 255, 255, 1)" offset="100%"/></linearGradient></defs><path style="transform:translate(0, 0px); opacity:1" fill="url(#sw-gradient-0)" d="M0,200L80,206.7C160,213,320,227,480,253.3C640,280,800,320,960,333.3C1120,347,1280,333,1440,300C1600,267,1760,213,1920,200C2080,187,2240,213,2400,220C2560,227,2720,213,2880,213.3C3040,213,3200,227,3360,233.3C3520,240,3680,240,3840,233.3C4000,227,4160,213,4320,200C4480,187,4640,173,4800,180C4960,187,5120,213,5280,200C5440,187,5600,133,5760,153.3C5920,173,6080,267,6240,293.3C6400,320,6560,280,6720,280C6880,280,7040,320,7200,340C7360,360,7520,360,7680,333.3C7840,307,8000,253,8160,206.7C8320,160,8480,120,8640,146.7C8800,173,8960,267,9120,273.3C9280,280,9440,200,9600,140C9760,80,9920,40,10080,66.7C10240,93,10400,187,10560,233.3C10720,280,10880,280,11040,233.3C11200,187,11360,93,11440,46.7L11520,0L11520,400L11440,400C11360,400,11200,400,11040,400C10880,400,10720,400,10560,400C10400,400,10240,400,10080,400C9920,400,9760,400,9600,400C9440,400,9280,400,9120,400C8960,400,8800,400,8640,400C8480,400,8320,400,8160,400C8000,400,7840,400,7680,400C7520,400,7360,400,7200,400C7040,400,6880,400,6720,400C6560,400,6400,400,6240,400C6080,400,5920,400,5760,400C5600,400,5440,400,5280,400C5120,400,4960,400,4800,400C4640,400,4480,400,4320,400C4160,400,4000,400,3840,400C3680,400,3520,400,3360,400C3200,400,3040,400,2880,400C2720,400,2560,400,2400,400C2240,400,2080,400,1920,400C1760,400,1600,400,1440,400C1280,400,1120,400,960,400C800,400,640,400,480,400C320,400,160,400,80,400L0,400Z"/></svg>